<?xml version="1.0" encoding="UTF-8" standalone="no"?>
<svg
   xmlns:dc="http://purl.org/dc/elements/1.1/"
   xmlns:cc="http://creativecommons.org/ns#"
   xmlns:rdf="http://www.w3.org/1999/02/22-rdf-syntax-ns#"
   xmlns:svg="http://www.w3.org/2000/svg"
   xmlns="http://www.w3.org/2000/svg"
   id="svg1586"
   version="1.1"
   viewBox="0 0 7.9374995 7.9374995"
   height="30"
   width="30">
  <defs
     id="defs1580" />
  <metadata
     id="metadata1583">
    <rdf:RDF>
      <cc:Work
         rdf:about="">
        <dc:format>image/svg+xml</dc:format>
        <dc:type
           rdf:resource="http://purl.org/dc/dcmitype/StillImage" />
        <dc:title></dc:title>
      </cc:Work>
    </rdf:RDF>
  </metadata>
  <g
     transform="translate(0,-289.0625)"
     id="layer1">
    <g
       transform="matrix(0.46335645,0,0,0.46335645,-59.080826,225.46946)"
       id="g2188">
      <g
         id="g742"
         transform="matrix(0.35277777,0,0,0.35277777,127.60476,137.34286)">
        <path
           d="m 24,0 c 0.786032,0 1.570169,0.03852218 2.352413,0.11556655 0.782246,0.0770444 1.55883,0.19223991 2.329754,0.34558666 0.770926,0.15334684 1.53248,0.34410638 2.284664,0.57227869 0.752182,0.2281723 1.491371,0.4926587 2.217568,0.7934592 0.7262,0.3008006 1.435905,0.6364666 2.129123,1.0069984 0.693215,0.3705318 1.3666,0.7741449 2.020161,1.2108393 0.653561,0.4366951 1.284145,0.9043684 1.891758,1.4030199 0.607609,0.4986519 1.189312,1.0258817 1.745117,1.5816884 0.555805,0.5558066 1.083035,1.137515 1.581688,1.7451238 0.498654,0.6076098 0.966324,1.2381931 1.403019,1.8917531 0.436695,0.65356 0.840305,1.326948 1.210838,2.020164 0.370533,0.693215 0.7062,1.402921 1.007,2.129119 0.300801,0.726197 0.565289,1.465386 0.793465,2.21757 0.228168,0.752184 0.418926,1.51374 0.572273,2.284666 0.153347,0.770925 0.268547,1.547512 0.345593,2.329758 C 47.961479,22.429834 48,23.213972 48,24 c 0,0.786032 -0.03852,1.570169 -0.11557,2.352413 -0.07705,0.782246 -0.192246,1.55883 -0.345593,2.329754 -0.153343,0.770926 -0.344101,1.53248 -0.572269,2.284664 -0.228176,0.752182 -0.492664,1.491371 -0.793465,2.217568 -0.3008,0.7262 -0.636467,1.435905 -1.007,2.129123 -0.370533,0.693215 -0.774147,1.3666 -1.210842,2.020161 -0.436691,0.653561 -0.904365,1.284145 -1.403019,1.891758 -0.498649,0.607609 -1.025879,1.189312 -1.581684,1.745117 -0.555805,0.555805 -1.137512,1.083035 -1.745121,1.581688 -0.607612,0.498654 -1.238197,0.966324 -1.891758,1.403019 -0.653557,0.436695 -1.326942,0.840305 -2.020157,1.210838 -0.693218,0.370533 -1.402923,0.7062 -2.129123,1.007 -0.726197,0.300801 -1.465386,0.565289 -2.21757,0.793465 -0.752184,0.228168 -1.513738,0.418926 -2.284664,0.572273 -0.770923,0.153347 -1.547508,0.268547 -2.329754,0.345593 C 25.570168,47.961479 24.786032,48 24,48 c -0.786028,0 -1.570166,-0.03852 -2.352411,-0.11557 -0.782244,-0.07705 -1.558831,-0.192246 -2.329758,-0.345593 -0.770925,-0.153343 -1.53248,-0.344101 -2.284664,-0.572269 -0.752184,-0.228176 -1.491373,-0.492664 -2.21757,-0.793465 -0.726198,-0.3008 -1.435904,-0.636467 -2.129119,-1.007 C 11.993262,44.79557 11.319874,44.391956 10.666314,43.955261 10.012754,43.51857 9.3821707,43.050896 8.7745619,42.552242 8.1669521,42.053593 7.5852437,41.526363 7.0294371,40.970558 6.4736304,40.414753 5.9464011,39.833046 5.4477491,39.225437 4.9490972,38.617825 4.4814239,37.98724 4.0447288,37.333679 3.6080344,36.680122 3.2044213,36.006737 2.8338895,35.313522 2.4633577,34.620304 2.1276917,33.910599 1.8268911,33.184399 1.5260906,32.458202 1.2616042,31.719013 1.0334318,30.966829 0.80525953,30.214645 0.61450005,29.453091 0.46115321,28.682165 0.30780646,27.911242 0.19261092,27.134657 0.11556655,26.352411 0.03852218,25.570168 0,24.786032 0,24 0,23.213972 0.03852218,22.429834 0.11556655,21.647589 0.19261092,20.865345 0.30780646,20.088758 0.46115321,19.317831 0.61450005,18.546906 0.80525959,17.785351 1.0334319,17.033167 1.2616042,16.280983 1.5260906,15.541794 1.8268911,14.815597 2.1276917,14.089399 2.4633577,13.379693 2.8338895,12.686478 3.2044213,11.993262 3.6080344,11.319874 4.0447288,10.666314 4.4814239,10.012754 4.9490972,9.3821707 5.4477487,8.7745619 5.9464006,8.1669521 6.4736304,7.5852437 7.0294371,7.0294371 7.5852437,6.4736304 8.1669521,5.9464011 8.7745609,5.4477491 9.3821707,4.9490972 10.012754,4.4814239 10.666314,4.0447288 11.319874,3.6080344 11.993262,3.2044213 12.686478,2.8338895 13.379693,2.4633577 14.089399,2.1276917 14.815597,1.8268911 15.541794,1.5260906 16.280983,1.2616042 17.033167,1.0334318 17.785351,0.80525953 18.546907,0.61450005 19.317833,0.46115321 20.088758,0.30780646 20.865345,0.19261092 21.647591,0.11556655 22.429834,0.03852218 23.213972,0 24,0 Z"
           style="fill:#18754d;fill-opacity:1;fill-rule:nonzero;stroke:none"
           id="path744" />
      </g>
      <g
         id="g746"
         transform="matrix(0.35277777,0,0,0.35277777,131.8381,141.92896)">
        <path
           d="m 11.2,16.6 c 0.399999,0.5 1.2,0.5 1.6,0 l 5.999999,-6.3 C 19.299999,9.8000002 18.799999,9 18,9 H 14 C 14,9 14.2,4.4000001 14,2 13.9,0.89999998 13.1,0 12,0 10.9,0 10.1,0.89999998 10,2 9.8000002,4.3000002 10,9 10,9 H 6 C 5.1999998,9 4.6999998,9.8000002 5.1999998,10.4 Z"
           style="fill:#ffffff;fill-opacity:1;fill-rule:nonzero;stroke:none"
           id="path748" />
        <path
           d="M 19,19 H 5 c -1.0999999,0 -2,0.9 -2,2 0,0.6 0.4000001,1 1,1 h 16 c 0.6,0 1,-0.4 1,-1 0,-1.1 -0.9,-2 -2,-2 z"
           style="fill:#ffffff;fill-opacity:1;fill-rule:nonzero;stroke:none"
           id="path750" />
      </g>
    </g>
  </g>
</svg>
