<?xml version="1.0" encoding="UTF-8" standalone="no"?>
<svg
   xmlns:dc="http://purl.org/dc/elements/1.1/"
   xmlns:cc="http://creativecommons.org/ns#"
   xmlns:rdf="http://www.w3.org/1999/02/22-rdf-syntax-ns#"
   xmlns:svg="http://www.w3.org/2000/svg"
   xmlns="http://www.w3.org/2000/svg"
   xmlns:sodipodi="http://sodipodi.sourceforge.net/DTD/sodipodi-0.dtd"
   xmlns:inkscape="http://www.inkscape.org/namespaces/inkscape"
   id="svg1710"
   version="1.1"
   viewBox="0 0 13.229166 13.229167"
   height="50"
   width="50"
   sodipodi:docname="minus.svg"
   inkscape:version="0.92.5 (2060ec1f9f, 2020-04-08)">
  <sodipodi:namedview
     pagecolor="#ffffff"
     bordercolor="#666666"
     borderopacity="1"
     objecttolerance="10"
     gridtolerance="10"
     guidetolerance="10"
     inkscape:pageopacity="0"
     inkscape:pageshadow="2"
     inkscape:window-width="1600"
     inkscape:window-height="840"
     id="namedview14"
     showgrid="false"
     inkscape:zoom="4.72"
     inkscape:cx="-13.665254"
     inkscape:cy="25"
     inkscape:window-x="0"
     inkscape:window-y="0"
     inkscape:window-maximized="1"
     inkscape:current-layer="g654" />
  <defs
     id="defs1704" />
  <metadata
     id="metadata1707">
    <rdf:RDF>
      <cc:Work
         rdf:about="">
        <dc:format>image/svg+xml</dc:format>
        <dc:type
           rdf:resource="http://purl.org/dc/dcmitype/StillImage" />
        <dc:title></dc:title>
      </cc:Work>
    </rdf:RDF>
  </metadata>
  <g
     id="g654"
     transform="matrix(0.35277776,0,0,0.35277776,1.146528,1.146528)">
    <path
       d="m 15.5,1 c 0.952084,0 1.89502,0.092871 2.828808,0.2786133 0.93379,0.1857423 1.84049,0.4607866 2.7201,0.8251331 0.87961,0.3643465 1.715231,0.8109944 2.506859,1.3399437 0.791628,0.5289492 1.524056,1.1300361 2.197279,1.803261 0.673224,0.6732249 1.274309,1.4056516 1.803257,2.1972799 0.52895,0.7916289 0.975599,1.6272478 1.339947,2.5068589 C 29.260597,10.8307 29.535641,11.7374 29.721384,12.67119 29.907125,13.604979 29.999998,14.547915 30,15.5 c -2e-6,0.952084 -0.09287,1.89502 -0.278618,2.828808 -0.185741,0.93379 -0.460785,1.84049 -0.825132,2.7201 -0.364348,0.87961 -0.810997,1.715231 -1.339947,2.506859 -0.528948,0.791628 -1.130033,1.524056 -1.803257,2.197279 -0.673223,0.673224 -1.405651,1.274309 -2.197281,1.803257 -0.791628,0.52895 -1.627247,0.975599 -2.506857,1.339947 -0.87961,0.364347 -1.78631,0.639391 -2.7201,0.825134 C 17.39502,29.907125 16.452084,29.999998 15.5,30 14.547915,29.999998 13.604979,29.90713 12.67119,29.721382 11.7374,29.535641 10.8307,29.260597 9.9510899,28.89625 9.0714788,28.531902 8.2358599,28.085253 7.4442315,27.556303 6.6526027,27.027355 5.920176,26.42627 5.2469511,25.753046 4.5737262,25.079823 3.9726393,24.347395 3.4436901,23.555765 2.9147408,22.764137 2.4680929,21.928518 2.1037464,21.048908 1.7393998,20.169298 1.4643555,19.262598 1.2786132,18.328808 1.0928709,17.39502 0.99999994,16.452084 1,15.5 c -6e-8,-0.952085 0.092871,-1.895021 0.2786132,-2.82881 C 1.4643555,11.7374 1.7393998,10.8307 2.1037464,9.9510899 2.4680929,9.0714788 2.9147408,8.2358599 3.4436901,7.4442315 3.9726393,6.6526027 4.5737262,5.920176 5.2469511,5.2469511 5.920176,4.5737262 6.6526027,3.9726393 7.444231,3.4436901 8.2358599,2.9147408 9.0714788,2.4680929 9.9510899,2.1037464 10.8307,1.7393999 11.7374,1.4643556 12.67119,1.2786133 13.604979,1.0928711 14.547915,1 15.5,1 Z"
       style="fill:none;stroke:#0096b8;stroke-width:1;stroke-linecap:butt;stroke-linejoin:miter;stroke-miterlimit:10;stroke-dasharray:none;stroke-opacity:1"
       id="path658"
       inkscape:connector-curvature="0" />
  </g>
  <g
     id="g660"
     transform="matrix(0,0.35277776,-0.35277776,0,9.0840276,6.6145832)">
    <path
       d="M 0,0 V 14"
       style="fill:none;stroke:#0096b8;stroke-width:1;stroke-linecap:butt;stroke-linejoin:miter;stroke-miterlimit:10;stroke-dasharray:none;stroke-opacity:1"
       id="path662"
       inkscape:connector-curvature="0" />
  </g>
</svg>
