<svg xmlns="http://www.w3.org/2000/svg" width="38" height="38" viewBox="0 0 38 38"><defs><style>.a,.d{fill:none;}.a{stroke:#3dbe81;stroke-width:2px;}.b{fill:#3ebf7f;fill-rule:evenodd;}.c{stroke:none;}</style></defs><g transform="translate(-274 -67)"><g class="a" transform="translate(274 67)"><circle class="c" cx="19" cy="19" r="19"/><circle class="d" cx="19" cy="19" r="18"/></g><g transform="translate(283.8 76.8)"><path class="b" d="M18.322,13.472a12.206,12.206,0,0,1-3.88-.647,1.327,1.327,0,0,0-1.078.216l-2.371,2.371A16.779,16.779,0,0,1,3.88,8.3L6.251,5.928A.858.858,0,0,0,6.467,4.85a14.5,14.5,0,0,1-.539-3.772A1.018,1.018,0,0,0,4.85,0H1.078A1.018,1.018,0,0,0,0,1.078,18.307,18.307,0,0,0,18.322,19.4,1.018,1.018,0,0,0,19.4,18.322V14.55a1.018,1.018,0,0,0-1.078-1.078Z"/></g></g></svg>